CompleatedBeleren.sfdir
StartChar: comma
Encoding: 44 44 26
Width: 1100
VWidth: 2573
Flags: W
HStem: 715 95<0 280 770 1100>
LayerCount: 2
Fore
SplineSet
280 810 m 25
 280 715 l 25
 0 715 l 17
 -50 763 l 1
 0 810 l 9
 280 810 l 25
770 715 m 29
 770 810 l 29
 1100 810 l 21
 1150 762 l 5
 1100 715 l 13
 770 715 l 29
EndSplineSet
EndChar
StartChar: period
Encoding: 46 46 14
Width: 1360
VWidth: 2573
Flags: W
HStem: 715 95<0 800>
LayerCount: 2
Fore
SplineSet
0 715 m 1
 -50 759 l 1
 0 810 l 1
 1295 810 l 1
 415 203 l 5
 401 217 l 5
 800 715 l 1
 0 715 l 1
EndSplineSet
EndChar
StartChar: asciicircum
Encoding: 94 94 0
Width: 920
VWidth: 2573
Flags: W
HStem: 0 21G<294 602> 715 95<376 920> 1500 20G<294 602>
VStem: 376 119<715 810>
LayerCount: 2
Fore
SplineSet
376 715 m 25
 376 810 l 25
 920 810 l 17
 970 762 l 1
 920 715 l 9
 376 715 l 25
495 1353 m 9
 495 80 l 17
 602 0 l 9
 294 0 l 25
 294 1520 l 25
 602 1520 l 17
 544 1487 495 1450 495 1353 c 9
EndSplineSet
EndChar
StartChar: a
Encoding: 97 97 18
Width: 1440
VWidth: 2573
Flags: W
HStem: 715 503<202 405 582 785> 715 95<0 202 405 582 785 972 1178 1440> 778 32<972 1178> 1704 20G<972 1005.5>
VStem: 202 203<786 1179.45> 582 203<786 1179.45> 972 206<778 1619.93>
LayerCount: 2
Fore
SplineSet
582 786 m 25x9e
 582 1218 l 1
 865 1218 l 1
 817 1181 785 1110 785 1038 c 9
 785 770 l 1
 582 786 l 25x9e
202 786 m 25
 202 1218 l 1
 485 1218 l 1
 437 1181 405 1110 405 1038 c 9
 405 770 l 1
 202 786 l 25
972 778 m 25x3e
 972 1724 l 1
 981 1724 l 1
 1030 1656 1122 1618.62109375 1178 1608 c 9
 1178 770 l 25
 972 778 l 25x3e
0 715 m 1x5e
 -50 759 l 1
 0 810 l 1
 1440 810 l 1
 1490 764 l 1
 1440 715 l 1
 0 715 l 1x5e
EndSplineSet
EndChar
StartChar: d
Encoding: 100 100 13
Width: 1760
VWidth: 2573
Flags: W
HStem: 140 21G<1328 1447.37> 715 95<0 1760> 859 21G<1111.77 1155 1242.39 1260.14> 1701 20G<293.261 384.5 1111.77 1162.86>
LayerCount: 2
Fore
SplineSet
964 1290 m 1
 1155 878 l 1
 1132 859 l 1
 696 1290 l 1
 1132 1721 l 1
 1158 1721 l 1
 1265 1281 l 1
 1040 1480 l 1
 964 1290 l 1
95 1262 m 1
 335 1377 l 1
 434 1309 566 1181 792 967 c 2
 1079 695 l 2
 1291 495 1414 365 1655 258 c 1
 1405 140 l 1
 1251 251 1137 374 968 537 c 2
 681 814 l 2
 474 1013 332 1156 95 1262 c 1
0 715 m 1
 -50 764 l 1
 0 810 l 1
 1760 810 l 5
 1810 763 l 5
 1760 715 l 5
 0 715 l 1
EndSplineSet
EndChar
StartChar: e
Encoding: 101 101 6
Width: 1450
VWidth: 2573
Flags: W
HStem: 715 503<242 445 982 1185> 715 95<0 242 445 612 818 982 1185 1450> 778 32<612 818> 1704 20G<612 645.5>
VStem: 242 203<786 1138> 612 206<778 1619.93> 982 203<786 1193.45>
LayerCount: 2
Back
SplineSet
612 778 m 29x3c
 612 1406 l 5
 612 1472 607 1619 584 1724 c 5
 818 1628 l 13
 818 770 l 29
 612 778 l 29x3c
EndSplineSet
Fore
SplineSet
612 778 m 25x3e
 612 1724 l 1
 621 1724 l 1
 670 1656 762 1618.62109375 818 1608 c 9
 818 770 l 25
 612 778 l 25x3e
982 786 m 25
 982 1218 l 1
 1265 1218 l 1x9e
 1217 1191 1185 1160 1185 1088 c 9
 1185 770 l 1
 982 786 l 25
445 786 m 29
 242 770 l 5
 242 1138 l 21
 162 1218 l 5
 445 1218 l 5
 445 786 l 29
0 715 m 1x5e
 -50 759 l 1
 0 810 l 1
 1450 810 l 1
 1500 764 l 1
 1450 715 l 1
 0 715 l 1x5e
EndSplineSet
EndChar
StartChar: f
Encoding: 102 102 23
Width: 1850
VWidth: 2573
Flags: W
HStem: 715 95<0 1850> 929 21G<444 494.831> 1631 20G<444 494.831 1354.5 1453.22>
LayerCount: 2
Fore
SplineSet
582 1290 m 1
 444 1631 l 1
 474 1651 l 1
 850 1290 l 1
 474 929 l 1
 444 949 l 1
 582 1290 l 1
1641 1470 m 1
 1515 1338 1239 973 1136 847 c 2
 884 517 l 2
 773 387 577 119 520 -13 c 1
 244 60 l 1
 366 174 616 504 747 660 c 2
 1000 985 l 2
 1137 1146 1328 1421 1381 1542 c 1
 1641 1470 l 1
0 715 m 1
 -50 764 l 1
 0 810 l 1
 1850 810 l 5
 1900 763 l 5
 1850 715 l 5
 0 715 l 1
EndSplineSet
EndChar
StartChar: g
Encoding: 103 103 24
Width: 1760
VWidth: 2573
Flags: W
HStem: 140 21G<1328 1447.37> 715 95<0 1760> 1173 21G<1040 1123.36 1249.3 1297> 1280 30<1426.24 1486> 1377 2G<293.261 384.5 1040 1140.22 1249.77 1297>
LayerCount: 2
Fore
SplineSet
1040 1173 m 25
 1040 1399 l 25
 1486 1310 l 25
 1486 1280 l 25
 1040 1173 l 25
1112 1290 m 1
 1297 875 l 1
 1270 859 l 1
 824 1290 l 1
 1270 1731 l 1
 1297 1715 l 1
 1112 1290 l 1
95 1262 m 1
 335 1377 l 1
 434 1309 566 1181 792 967 c 2
 1079 695 l 2
 1291 495 1414 365 1655 258 c 1
 1405 140 l 1
 1251 251 1137 374 968 537 c 2
 681 814 l 2
 474 1013 332 1156 95 1262 c 1
0 715 m 1
 -50 764 l 1
 0 810 l 1
 1760 810 l 5
 1810 763 l 5
 1760 715 l 5
 0 715 l 1
EndSplineSet
EndChar
StartChar: h
Encoding: 104 104 19
Width: 2070
VWidth: 2573
Flags: W
HStem: 715 95<0 2070> 1522 20G<1574.5 1673.22>
LayerCount: 2
Fore
SplineSet
76 370 m 5
 76 399 l 5
 192 429 290 506 342 534 c 5
 407 500 508 438 612 408 c 5
 612 381 l 5
 519.461914062 347.2265625 396 270 342 242 c 5
 290 268 195.545898438 335.518554688 76 370 c 5
1861 1470 m 5
 1735 1338 1459 973 1356 847 c 6
 1104 517 l 6
 993 387 797 119 740 -13 c 5
 464 60 l 5
 586 174 836 504 967 660 c 6
 1220 985 l 6
 1357 1146 1548 1421 1601 1542 c 5
 1861 1470 l 5
0 715 m 1
 -50 764 l 1
 0 810 l 1
 2070 810 l 5
 2120 763 l 5
 2070 715 l 5
 0 715 l 1
EndSplineSet
EndChar
StartChar: i
Encoding: 105 105 3
Width: 1420
VWidth: 2573
Flags: W
HStem: 715 503<572 775 952 1155> 715 95<0 202 408 572 775 952 1155 1420> 778 32<202 408> 1704 20G<202 235.5>
VStem: 202 206<778 1619.93> 572 203<786 1193.45> 952 203<786 1193.45>
LayerCount: 2
Back
SplineSet
202 778 m 25x3c
 202 1406 l 1
 202 1472 197 1619 174 1724 c 1
 408 1628 l 9
 408 770 l 25
 202 778 l 25x3c
EndSplineSet
Fore
SplineSet
952 786 m 25x9e
 952 1218 l 1
 1235 1218 l 1
 1187 1191 1155 1160 1155 1088 c 13
 1155 770 l 1
 952 786 l 25x9e
572 786 m 25
 572 1218 l 1
 855 1218 l 1
 807 1191 775 1160 775 1088 c 13
 775 770 l 1
 572 786 l 25
202 778 m 25x3e
 202 1724 l 1
 211 1724 l 1
 260 1656 352 1618.62141031 408 1608 c 9
 408 770 l 25
 202 778 l 25x3e
0 715 m 1x5e
 -50 759 l 1
 0 810 l 1
 1420 810 l 1
 1470 764 l 1
 1420 715 l 1
 0 715 l 1x5e
EndSplineSet
EndChar
StartChar: j
Encoding: 106 106 38
Width: 2350
VWidth: 2573
Flags: W
HStem: 715 95<0 1893 2193 2350> 859 21G<521.768 565 652.387 670.136> 1701 20G<521.768 572.864 965.322 1083.5>
LayerCount: 2
Fore
SplineSet
760 312 m 1
 937 352 1356 547 1875 785 c 2
 1907 800 l 1
 2291 793 l 1
 1971 647 l 2
 1530 445 1117 241 980 200 c 1
 760 312 l 1
374 1290 m 1
 565 878 l 1
 542 859 l 1
 106 1290 l 1
 542 1721 l 1
 568 1721 l 1
 675 1281 l 1
 450 1480 l 1
 374 1290 l 1
1893 731 m 1
 1657 848 l 2
 1325 1012 1007 1194 766 1304 c 1
 1006 1422 l 1
 1161 1313 1518 1115 1773 975 c 2
 2193 744 l 1
 1893 731 l 1
0 715 m 1
 -50 764 l 1
 0 810 l 1
 2350 810 l 1
 2400 763 l 1
 2350 715 l 1
 0 715 l 1
EndSplineSet
EndChar
StartChar: k
Encoding: 107 107 25
Width: 1840
VWidth: 2573
Flags: W
HStem: 140 21G<1328 1447.37> 715 95<0 1840> 969 225G<839 893.657 1210 1284.02 1326.26 1367> 1377 2G<293.261 384.5 839 893.657 1210 1298.99 1326.58 1367>
LayerCount: 2
Fore
SplineSet
1210 1173 m 25
 1210 1399 l 25
 1606 1310 l 25
 1606 1280 l 25
 1210 1173 l 25
1282 1290 m 1
 1367 875 l 1
 1340 859 l 1
 1044 1290 l 1
 1340 1731 l 1
 1367 1715 l 1
 1282 1290 l 1
1032 1290 m 1
 839 1591 l 1
 864 1611 l 1
 1340 1290 l 1
 864 969 l 1
 839 989 l 1
 1032 1290 l 1
95 1262 m 1
 335 1377 l 1
 434 1309 566 1181 792 967 c 2
 1079 695 l 2
 1291 495 1414 365 1655 258 c 1
 1405 140 l 1
 1251 251 1137 374 968 537 c 2
 681 814 l 2
 474 1013 332 1156 95 1262 c 1
0 715 m 1
 -50 764 l 1
 0 810 l 1
 1840 810 l 5
 1890 763 l 5
 1840 715 l 5
 0 715 l 1
EndSplineSet
EndChar
StartChar: l
Encoding: 108 108 2
Width: 1200
VWidth: 2573
Flags: W
HStem: 715 95<0 1200> 859 21G<651.768 695 782.387 800.136> 1701 20G<651.768 702.864> 1701 20G<651.768 702.864>
LayerCount: 2
Fore
SplineSet
0 715 m 1xc0
 -50 759 l 1
 0 810 l 1
 1200 810 l 1
 1250 764 l 1
 1200 715 l 1
 0 715 l 1xc0
504 1290 m 1
 695 878 l 1
 672 859 l 1
 236 1290 l 1
 672 1721 l 1
 698 1721 l 1xe0
 805 1281 l 1
 580 1480 l 1
 504 1290 l 1
EndSplineSet
EndChar
StartChar: m
Encoding: 109 109 15
Width: 1100
VWidth: 2573
Flags: W
HStem: 0 21G<387 705> 715 95<0 1100> 1500 20G<504 812>
VStem: 504 201<80 1474.05>
LayerCount: 2
Fore
SplineSet
0 715 m 1
 -50 764 l 1
 0 810 l 1
 1100 810 l 1
 1150 763 l 1
 1100 715 l 1
 0 715 l 1
504 80 m 9
 504 1520 l 25
 812 1520 l 17
 754 1487 705 1450 705 1353 c 9
 705 0 l 25
 387 0 l 17
 504 80 l 9
EndSplineSet
EndChar
StartChar: o
Encoding: 111 111 21
Width: 1560
VWidth: 2573
Flags: W
HStem: -32 186<275 659 865 1297> 328 482<312 515 1012 1215> 715 95<0 312 515 659 865 1012 1215 1560> 715 61<659 865>
VStem: 312 203<350.123 760> 659 206<154 768> 1012 203<388 760>
LayerCount: 2
Fore
SplineSet
0 715 m 1xae
 -50 759 l 1
 0 810 l 1
 1560 810 l 1
 1610 764 l 1
 1560 715 l 1
 0 715 l 1xae
1012 760 m 25
 1215 776 l 1x9e
 1215 388 l 17
 1295 328 l 1
 1012 328 l 1xce
 1012 760 l 25
515 760 m 25
 515 328 l 1
 232 328 l 1xce
 280 345 312 396 312 468 c 9
 312 776 l 1
 515 760 l 25
659 776 m 1x9e
 865 768 l 1
 865 154 l 1
 1075 154 l 2
 1141 154 1288 159 1393 182 c 1
 1297 -32 l 1
 275 -32 l 1
 210 -135 l 1
 210 154 l 1
 659 154 l 1
 659 776 l 1x9e
EndSplineSet
EndChar
StartChar: p
Encoding: 112 112 1
Width: 1760
VWidth: 2573
Flags: W
HStem: 140 21G<1328 1447.37> 715 95<0 1760> 929 21G<944 994.831> 1357 20G<293.261 384.5 944 994.831>
LayerCount: 2
Fore
SplineSet
95 1262 m 5
 335 1377 l 5
 434 1309 566 1181 792 967 c 2
 1079 695 l 2
 1291 495 1414 365 1655 258 c 5
 1405 140 l 5
 1251 251 1137 374 968 537 c 6
 681 814 l 2
 474 1013 332 1156 95 1262 c 5
1082 1290 m 1
 944 1631 l 1
 974 1651 l 1
 1350 1290 l 1
 974 929 l 5
 944 949 l 5
 1082 1290 l 1
0 715 m 1
 -50 764 l 1
 0 810 l 1
 1760 810 l 5
 1810 763 l 5
 1760 715 l 5
 0 715 l 1
EndSplineSet
EndChar
StartChar: q
Encoding: 113 113 8
Width: 1880
VWidth: 2573
Flags: W
HStem: 140 21G<1328 1447.37> 715 95<0 1880> 859 21G<944 992.615 1473.62 1522.86> 1279 98G<293.261 384.5 944 992.615 1473.62 1515 1602.39 1620.14> 1701 20G<1473.62 1515>
LayerCount: 2
Fore
SplineSet
1314 1290 m 1
 1400 1100 l 1
 1625 1299 l 1
 1518 859 l 1
 1492 859 l 1
 1096 1290 l 1
 1492 1721 l 1
 1515 1702 l 1
 1314 1290 l 1
95 1262 m 1
 335 1377 l 1
 434 1309 566 1181 792 967 c 2
 1079 695 l 2
 1291 495 1414 365 1655 258 c 1
 1405 140 l 1
 1251 251 1137 374 968 537 c 2
 681 814 l 2
 474 1013 332 1156 95 1262 c 1
1092 1290 m 1
 944 1631 l 1
 974 1651 l 1
 1310 1290 l 1
 974 929 l 1
 944 949 l 1
 1092 1290 l 1
0 715 m 1
 -50 764 l 1
 0 810 l 1
 1880 810 l 5
 1930 763 l 5
 1880 715 l 5
 0 715 l 1
EndSplineSet
EndChar
StartChar: r
Encoding: 114 114 11
Width: 2150
VWidth: 2573
Flags: W
HStem: 715 95<0 439 761 1586 1892 2150> 771 39<439 761> 859 21G<601.768 645 732.387 750.136> 1552 169G<601.768 652.864 1157 1246> 1701 20G<601.768 652.864>
LayerCount: 2
Fore
SplineSet
1632 773.404181185 m 1x60
 1586 817 l 2
 1421 974 1270 1125 1189 1232 c 1
 761 771 l 1
 439 776 l 1
 529 819 625 912 728 1018 c 0
 1000.99609375 1298.94726562 1119 1443 1195 1572 c 1
 1207 1572 l 1
 1285 1424 1459 1204 1697 975 c 2
 1892 786.794425087 l 1
 1632 773.404181185 l 1x60
454 1290 m 5
 645 878 l 5
 622 859 l 5
 186 1290 l 5
 622 1721 l 5
 648 1721 l 5x30
 755 1281 l 5
 530 1480 l 5
 454 1290 l 5
0 715 m 1xa0
 -50 764 l 1
 0 810 l 1
 2150 810 l 1
 2200 763 l 1
 2150 715 l 1
 0 715 l 1xa0
EndSplineSet
EndChar
StartChar: s
Encoding: 115 115 9
Width: 2900
VWidth: 2573
Flags: W
HStem: 715 95<0 269 2585 2900> 771 39<269 591> 929 21G<1654 1704.83> 1572 59G<857 946 1654 1704.83>
LayerCount: 2
Back
SplineSet
2220 250 m 5
 1861 250 l 5
 1766 313 1759 331 1533 545 c 6
 1246 817 l 6
 1081 974 930 1125 849 1232 c 5
 421 771 l 5x70
 99 776 l 5
 189 819 285 912 388 1018 c 4
 660.99609375 1298.94726562 779 1443 855 1572 c 5
 867 1572 l 5
 945 1424 1119 1204 1357 975 c 6
 1644 698 l 6
 1851 499 1983 356 2220 250 c 5
EndSplineSet
Fore
SplineSet
1792 1290 m 1x30
 1654 1631 l 1
 1684 1651 l 1
 2060 1290 l 1
 1684 929 l 1
 1654 949 l 1
 1792 1290 l 1x30
2020 250 m 1
 1661 250 l 1
 1576 316 1500.15039062 402.890625 1404 533 c 2
 1169 851 l 2
 1034 1034 970 1105 889 1212 c 1
 591 771 l 1x70
 269 776 l 1
 359 819 416 902 508 1018 c 0
 731 1299 819 1443 895 1572 c 1
 907 1572 l 1
 985 1424 1111 1254 1306 987 c 2
 1540 664 l 2
 1645.09375 518.934570312 1834 346 2020 250 c 1
1764 22 m 1
 1892 154 2145.09765625 542.798828125 2239 665 c 2
 2312 760 l 1
 2585 728 l 1
 2511 680 2466.8984375 616.2734375 2399 527 c 0
 2237 314 2130 147 2062 24 c 1
 1764 22 l 1
0 715 m 1xb0
 -50 764 l 1
 0 810 l 1
 2900 810 l 1
 2950 763 l 1
 2900 715 l 1
 0 715 l 1xb0
EndSplineSet
EndChar
StartChar: t
Encoding: 116 116 39
Width: 1760
VWidth: 2573
Flags: W
HStem: 140 21G<1328 1447.37> 715 95<0 1760> 880 49G<854 902.615 1383.62 1425 1512.39 1530.14> 1701 20G<293.261 384.5 854 902.615 1383.62 1432.86>
LayerCount: 2
Fore
SplineSet
1224 1290 m 1
 1425 878 l 1
 1402 859 l 1
 1006 1290 l 1
 1402 1721 l 1
 1428 1721 l 1
 1535 1281 l 1
 1310 1480 l 1
 1224 1290 l 1
1002 1290 m 1
 854 1631 l 1
 884 1651 l 1
 1220 1290 l 1
 884 929 l 1
 854 949 l 1
 1002 1290 l 1
95 1262 m 1
 335 1377 l 1
 434 1309 566 1181 792 967 c 2
 1079 695 l 2
 1291 495 1414 365 1655 258 c 1
 1405 140 l 1
 1251 251 1137 374 968 537 c 2
 681 814 l 2
 474 1013 332 1156 95 1262 c 1
0 715 m 1
 -50 764 l 1
 0 810 l 1
 1760 810 l 5
 1810 763 l 5
 1760 715 l 5
 0 715 l 1
EndSplineSet
EndChar
StartChar: u
Encoding: 117 117 22
Width: 1440
VWidth: 2573
Flags: W
HStem: -32 186<445 997> 328 482<632 835 1012 1215> 715 95<0 239 445 632 835 1012 1215 1440> 715 61<239 445>
VStem: 239 206<154 768> 632 203<348.195 760> 1012 203<348.195 760>
LayerCount: 2
Fore
SplineSet
0 715 m 1xae
 -50 759 l 1
 0 810 l 1
 1440 810 l 1
 1490 764 l 1
 1440 715 l 1
 0 715 l 1xae
1215 760 m 25
 1215 328 l 1
 932 328 l 1xce
 980 345 1012 386 1012 458 c 9
 1012 776 l 1x9e
 1215 760 l 25
835 760 m 25
 835 328 l 1
 552 328 l 1xce
 600 345 632 386 632 458 c 9
 632 776 l 1x9e
 835 760 l 25
239 776 m 1x9e
 445 768 l 1
 445 154 l 1
 775 154 l 2
 841 154 988 159 1093 182 c 1
 997 -32 l 1
 239 -32 l 1
 239 776 l 1x9e
EndSplineSet
EndChar
StartChar: w
Encoding: 119 119 16
Width: 1920
VWidth: 2573
Flags: W
HStem: 715 95<0 1393 1693 1920> 1402 20G<465.322 583.5>
LayerCount: 2
Fore
SplineSet
260 312 m 5
 437 352 856 547 1375 785 c 6
 1407 800 l 5
 1791 793 l 5
 1471 647 l 6
 1030 445 617 241 480 200 c 5
 260 312 l 5
1393 731 m 5
 1157 848 l 6
 825 1012 507 1194 266 1304 c 5
 506 1422 l 5
 661 1313 1018 1115 1273 975 c 6
 1693 744 l 5
 1393 731 l 5
0 715 m 1
 -50 764 l 1
 0 810 l 1
 1920 810 l 5
 1970 763 l 5
 1920 715 l 5
 0 715 l 1
EndSplineSet
EndChar
StartChar: x
Encoding: 120 120 7
Width: 1850
VWidth: 2573
Flags: W
HStem: 715 95<0 1850> 969 225G<229 283.657 600 674.019 716.265 757> 1522 89G<229 283.657 600 688.989 716.576 757 1354.5 1453.22>
LayerCount: 2
Back
SplineSet
1461 1370 m 5
 1246 1224 1096 989 927 757 c 6
 692 434 l 6
 554 244 407 43 275 -103 c 5
 9 -30 l 5
 228 117 381 336 555 570 c 6
 791 888 l 6
 976 1138 1126 1358 1205 1442 c 5
 1461 1370 l 5
384 1150 m 1
 555 738 l 1
 532 719 l 1
 146 1150 l 1
 532 1581 l 1
 558 1581 l 1
 635 1191 l 1
 440 1340 l 1
 384 1150 l 1
EndSplineSet
Fore
SplineSet
1641 1470 m 1
 1515 1338 1239 973 1136 847 c 2
 884 517 l 2
 773 387 577 119 520 -13 c 1
 244 60 l 1
 366 174 616 504 747 660 c 2
 1000 985 l 2
 1137 1146 1328 1421 1381 1542 c 1
 1641 1470 l 1
600 1173 m 25
 600 1399 l 25
 996 1310 l 25
 996 1280 l 25
 600 1173 l 25
672 1290 m 1
 757 875 l 1
 730 859 l 1
 434 1290 l 1
 730 1731 l 1
 757 1715 l 1
 672 1290 l 1
422 1290 m 1
 229 1591 l 1
 254 1611 l 1
 730 1290 l 1
 254 969 l 1
 229 989 l 1
 422 1290 l 1
0 715 m 1
 -50 764 l 1
 0 810 l 1
 1850 810 l 5
 1900 763 l 5
 1850 715 l 5
 0 715 l 1
EndSplineSet
EndChar
StartChar: y
Encoding: 121 121 48
Width: 1490
VWidth: 2573
Flags: W
HStem: 715 439<612 815 992 1195> 715 95<0 242 448 612 815 992 1195 1530> 778 32<242 448> 1325 186<448 877.429>
VStem: 242 206<778 1325> 612 203<786 1129.45> 992 203<786 1129.45>
LayerCount: 2
Fore
SplineSet
0 715 m 1x5e
 -50 759 l 1
 0 810 l 1
 1530 810 l 1
 1580 764 l 1
 1530 715 l 1
 0 715 l 1x5e
612 786 m 1
 612 1154 l 1
 895 1154 l 1x9e
 847 1127 815 1096 815 1024 c 1
 815 770 l 1
 612 786 l 1
992 786 m 1
 992 1154 l 1
 1275 1154 l 1
 1227 1127 1195 1096 1195 1024 c 1
 1195 770 l 1
 992 786 l 1
242 1511 m 1
 981 1511 l 1
 981 1502 l 1
 915.462155034 1454.77431301 878.870117188 1395.59960938 865 1325 c 1
 448 1325 l 1
 448 770 l 1
 242 778 l 1x3e
 242 1511 l 1
EndSplineSet
EndChar
StartChar: eth
Encoding: 240 240 42
Width: 1850
VWidth: 2573
Flags: W
HStem: 715 95<0 1850> 859 21G<681.768 725 821.382 839.682> 1701 20G<681.768 733.318 1354.5 1453.22>
LayerCount: 2
Fore
SplineSet
534 1290 m 1
 725 878 l 1
 702 859 l 1
 266 1290 l 1
 702 1721 l 1
 728 1721 l 1
 845 1281 l 1
 610 1480 l 1
 534 1290 l 1
1641 1470 m 1
 1515 1338 1239 973 1136 847 c 2
 884 517 l 2
 773 387 577 119 520 -13 c 1
 244 60 l 1
 366 174 616 504 747 660 c 2
 1000 985 l 2
 1137 1146 1328 1421 1381 1542 c 1
 1641 1470 l 1
0 715 m 1
 -50 764 l 1
 0 810 l 1
 1850 810 l 1
 1900 763 l 1
 1850 715 l 1
 0 715 l 1
EndSplineSet
EndChar
StartChar: oslash
Encoding: 248 248 49
Width: 1490
VWidth: 2573
Flags: W
HStem: 715 439<242 445 992 1195> 715 95<0 242 445 612 818 992 1195 1530> 778 32<612 818> 1245 21G<327 341.5> 1325 186<385 612 818 1087.43>
VStem: 242 203<786 1074> 612 206<778 1325> 992 203<786 1129.45>
LayerCount: 2
Fore
SplineSet
445 786 m 25x9f
 242 770 l 1
 242 1074 l 17
 162 1154 l 1
 445 1154 l 1
 445 786 l 25x9f
0 715 m 1x5f
 -50 759 l 1
 0 810 l 1
 1530 810 l 1
 1580 764 l 1
 1530 715 l 1
 0 715 l 1x5f
992 786 m 1
 992 1154 l 1
 1275 1154 l 1x9f
 1227 1127 1195 1096 1195 1024 c 1
 1195 770 l 1
 992 786 l 1
327 1511 m 1
 1191 1511 l 1
 1191 1502 l 1
 1125.46191406 1454.77441406 1088.87011719 1395.59960938 1075 1325 c 1
 818 1325 l 1
 818 770 l 1
 612 778 l 1x3f
 612 1325 l 1
 385 1325 l 1
 327 1245 l 1
 327 1511 l 1
EndSplineSet
EndChar
StartChar: ccaron
Encoding: 269 269 34
Width: 2190
VWidth: 2573
Flags: W
HStem: 715 95<0 2190> 722 69<398 698> 880 49G<234 282.615 763.624 805 892.387 910.136> 1330.9 20<1762.22 1775> 1701 20G<234 282.615 763.624 812.864>
LayerCount: 2
Fore
SplineSet
604 1290 m 1x38
 805 878 l 1
 782 859 l 1
 386 1290 l 1
 782 1721 l 1
 808 1721 l 1
 915 1281 l 1
 690 1480 l 1
 604 1290 l 1x38
382 1290 m 1
 234 1631 l 1
 264 1651 l 1
 600 1290 l 1
 264 929 l 1
 234 949 l 1
 382 1290 l 1
1775 1330.90136719 m 5
 1723.78320312 1319.32714844 1705 1234 1690 1139.0546875 c 5
 1473.140625 1053.54785156 1084.82058589 906.131598155 716 737 c 6
 684 722 l 5x78
 300 729 l 5
 620 875 l 6
 1061.29975104 1076.34301141 1505 1290.90136719 1775 1350.90136719 c 5
 1775 1330.90136719 l 5
698 791 m 5
 934 674 l 6
 1265.76392592 509.523816387 1459 404 1700 294 c 5
 1655 204 1650 99 1675 55 c 5
 1665 40 l 5
 1510 149 1073 407 818 547 c 6
 398 778 l 5
 698 791 l 5
0 715 m 1xb8
 -50 764 l 1
 0 810 l 1
 2190 810 l 1
 2240 763 l 1
 2190 715 l 1
 0 715 l 1xb8
EndSplineSet
EndChar
StartChar: uni0137
Encoding: 311 311 36
Width: 1840
VWidth: 2573
Flags: W
HStem: 140 21G<1328 1447.37> 210 10<146 169.766> 221 10<839.829 852> 715 95<0 1840> 969 225G<879 933.657 1250 1324.02 1366.26 1407> 1377 2G<293.261 384.5 879 933.657 1250 1338.99 1366.58 1407>
VStem: 492 10<-148 -125.082 333 614>
LayerCount: 2
Fore
SplineSet
146 210 m 1
 146 220 l 1
 407 260 452 328 488 614 c 1
 498 614 l 1
 542 333 589 265 852 231 c 1
 852 221 l 1
 588 164 546 111 502 -148 c 1
 492 -148 l 1
 456 102 406 173 146 210 c 1
1250 1173 m 25
 1250 1399 l 25
 1646 1310 l 25
 1646 1280 l 25
 1250 1173 l 25
1322 1290 m 1
 1407 875 l 1
 1380 859 l 1
 1084 1290 l 1
 1380 1731 l 1
 1407 1715 l 1
 1322 1290 l 1
1072 1290 m 1
 879 1591 l 1
 904 1611 l 1
 1380 1290 l 1
 904 969 l 1
 879 989 l 1
 1072 1290 l 1
95 1262 m 1
 335 1377 l 1
 434 1309 566 1181 792 967 c 2
 1079 695 l 2
 1291 495 1414 365 1655 258 c 1
 1405 140 l 1
 1251 251 1137 374 968 537 c 2
 681 814 l 2
 474 1013 332 1156 95 1262 c 1
0 715 m 1
 -50 764 l 1
 0 810 l 1
 1840 810 l 5
 1890 763 l 5
 1840 715 l 5
 0 715 l 1
EndSplineSet
EndChar
StartChar: eng
Encoding: 331 331 35
Width: 1510
VWidth: 2573
Flags: W
HStem: 0 21G<797 1115> 715 95<0 1510> 1173 21G<380 463.364 589.304 637> 1280 30<766.244 826> 1379 141G<380 480.225 589.773 637 914 1222>
VStem: 914 201<80 1474.05>
LayerCount: 2
Fore
SplineSet
380 1173 m 29
 380 1399 l 29
 826 1310 l 29
 826 1280 l 29
 380 1173 l 29
452 1290 m 5
 637 875 l 5
 610 859 l 5
 164 1290 l 5
 610 1731 l 5
 637 1715 l 5
 452 1290 l 5
0 715 m 1
 -50 764 l 1
 0 810 l 1
 1510 810 l 5
 1560 763 l 5
 1510 715 l 5
 0 715 l 1
914 80 m 13
 914 1520 l 29
 1222 1520 l 21
 1164 1487 1115 1450 1115 1353 c 13
 1115 0 l 29
 797 0 l 21
 914 80 l 13
EndSplineSet
EndChar
StartChar: scaron
Encoding: 353 353 37
Width: 2900
VWidth: 2573
Flags: W
HStem: 715 95<0 269 2585 2900> 771 39<269 591> 880 49G<1494 1542.61 2023.62 2065 2152.39 2170.14> 1552 169G<857 946 1494 1542.61 2023.62 2072.86> 1701 20G<2023.62 2072.86>
LayerCount: 2
Fore
SplineSet
1764 22 m 5x20
 1892 154 2145.09765625 542.798828125 2239 665 c 6
 2312 760 l 5
 2585 728 l 5
 2511 680 2466.8984375 616.2734375 2399 527 c 4
 2237 314 2130 147 2062 24 c 5
 1764 22 l 5x20
2020 250 m 5
 1661 250 l 5
 1576 316 1500.15039062 402.890625 1404 533 c 6
 1169 851 l 6
 1034 1034 970 1105 889 1212 c 5
 591 771 l 5x60
 269 776 l 5
 359 819 416 902 508 1018 c 4
 731 1299 819 1443 895 1572 c 5
 907 1572 l 5
 985 1424 1111 1254 1306 987 c 6
 1540 664 l 6
 1645.09375 518.934570312 1834 346 2020 250 c 5
0 715 m 5xa0
 -50 764 l 5
 0 810 l 5
 2900 810 l 5
 2950 763 l 5
 2900 715 l 5
 0 715 l 5xa0
1864 1290 m 1
 2065 878 l 1
 2042 859 l 1
 1646 1290 l 1
 2042 1721 l 1
 2068 1721 l 1x30
 2175 1281 l 1
 1950 1480 l 1
 1864 1290 l 1
1642 1290 m 1
 1494 1631 l 1
 1524 1651 l 1
 1860 1290 l 1
 1524 929 l 1
 1494 949 l 1
 1642 1290 l 1
EndSplineSet
EndChar
StartChar: uni0163
Encoding: 355 355 41
Width: 2310
VWidth: 2573
Flags: W
HStem: 210 10<106 129.766> 221 10<799.829 812> 715 95<0 2310> 880 49G<784 832.615 1313.62 1355 1442.39 1460.14> 1701 20G<784 832.615 1313.62 1362.86 1814.5 1913.22>
VStem: 452 10<-148 -125.082 333 614>
LayerCount: 2
Fore
SplineSet
106 210 m 1
 106 220 l 1
 367 260 412 328 448 614 c 1
 458 614 l 1
 502 333 549 265 812 231 c 1
 812 221 l 1
 548 164 506 111 462 -148 c 1
 452 -148 l 1
 416 102 366 173 106 210 c 1
1154 1290 m 1
 1355 878 l 1
 1332 859 l 1
 936 1290 l 1
 1332 1721 l 1
 1358 1721 l 1
 1465 1281 l 1
 1240 1480 l 1
 1154 1290 l 1
932 1290 m 1
 784 1631 l 1
 814 1651 l 1
 1150 1290 l 1
 814 929 l 1
 784 949 l 1
 932 1290 l 1
2101 1470 m 1
 1975 1338 1699 973 1596 847 c 2
 1344 517 l 2
 1233 387 1037 119 980 -13 c 1
 704 60 l 1
 826 174 1076 504 1207 660 c 2
 1460 985 l 2
 1597 1146 1788 1421 1841 1542 c 1
 2101 1470 l 1
0 715 m 1
 -50 764 l 1
 0 810 l 1
 2310 810 l 1
 2360 763 l 1
 2310 715 l 1
 0 715 l 1
EndSplineSet
EndChar
StartChar: zcaron
Encoding: 382 382 43
Width: 2900
VWidth: 2573
Flags: W
HStem: 715 95<0 269 2585 2900> 771 39<269 591> 969 225G<1389 1443.66 1760 1834.02 1876.26 1917> 1552 20G<857 946 1389 1443.66 1760 1848.99 1876.58 1917>
LayerCount: 2
Fore
SplineSet
1764 22 m 1x30
 1892 154 2145.09765625 542.798828125 2239 665 c 2
 2312 760 l 1
 2585 728 l 1
 2511 680 2466.8984375 616.2734375 2399 527 c 0
 2237 314 2130 147 2062 24 c 1
 1764 22 l 1x30
2020 250 m 1
 1661 250 l 1
 1576 316 1500.15039062 402.890625 1404 533 c 2
 1169 851 l 2
 1034 1034 970 1105 889 1212 c 1
 591 771 l 1x70
 269 776 l 1
 359 819 416 902 508 1018 c 0
 731 1299 819 1443 895 1572 c 1
 907 1572 l 1
 985 1424 1111 1254 1306 987 c 2
 1540 664 l 2
 1645.09375 518.934570312 1834 346 2020 250 c 1
0 715 m 1xb0
 -50 764 l 1
 0 810 l 1
 2900 810 l 1
 2950 763 l 1
 2900 715 l 1
 0 715 l 1xb0
1760 1173 m 25
 1760 1399 l 25
 2156 1310 l 25
 2156 1280 l 25
 1760 1173 l 25
1832 1290 m 1
 1917 875 l 1
 1890 859 l 1
 1594 1290 l 1
 1890 1731 l 1
 1917 1715 l 1
 1832 1290 l 1
1582 1290 m 1
 1389 1591 l 1
 1414 1611 l 1
 1890 1290 l 1
 1414 969 l 1
 1389 989 l 1
 1582 1290 l 1
EndSplineSet
EndChar
StartChar: uni01C6
Encoding: 454 454 33
Width: 2190
VWidth: 2573
Flags: W
HStem: 715 95<0 2190> 722 69<398 698> 906 21G<146 180.837 1093.65 1106.91> 1330.9 20<1762.22 1775> 1701 20G<873.557 925.089> 1701 20G<873.557 925.089>
LayerCount: 2
Fore
SplineSet
1775 1330.90136719 m 5x70
 1723.78320312 1319.32714844 1705 1234 1690 1139.0546875 c 5
 1473.140625 1053.54785156 1084.82058589 906.131598155 716 737 c 6
 684 722 l 5
 300 729 l 5
 620 875 l 6
 1061.29975104 1076.34301141 1505 1290.90136719 1775 1350.90136719 c 5
 1775 1330.90136719 l 5x70
698 791 m 5
 934 674 l 6
 1265.76392592 509.523816387 1459 404 1700 294 c 5
 1655 204 1650 99 1675 55 c 5
 1665 40 l 5
 1510 149 1073 407 818 547 c 6
 398 778 l 5
 698 791 l 5
882 1396 m 1
 151 906 l 1
 146 912 l 1
 892 1721 l 1
 918 1721 l 1x38
 1114 1168 l 1
 882 1396 l 1
0 715 m 1xb0
 -50 764 l 1
 0 810 l 1
 2190 810 l 1
 2240 763 l 1
 2190 715 l 1
 0 715 l 1xb0
EndSplineSet
EndChar
StartChar: uni01E5
Encoding: 485 485 47
Width: 1880
VWidth: 2573
Flags: W
HStem: 140 21G<1328 1447.37> 210 10<146 169.766> 221 10<839.829 852> 715 95<0 1880> 859 21G<944 992.615 1473.62 1522.86> 1279 98G<293.261 384.5 944 992.615 1473.62 1515 1602.39 1620.14> 1701 20G<1473.62 1515>
VStem: 492 10<-148 -125.082 333 614>
LayerCount: 2
Fore
SplineSet
146 210 m 1
 146 220 l 1
 407 260 452 328 488 614 c 1
 498 614 l 1
 542 333 589 265 852 231 c 1
 852 221 l 1
 588 164 546 111 502 -148 c 1
 492 -148 l 1
 456 102 406 173 146 210 c 1
1314 1290 m 1
 1400 1100 l 1
 1625 1299 l 1
 1518 859 l 1
 1492 859 l 1
 1096 1290 l 1
 1492 1721 l 1
 1515 1702 l 1
 1314 1290 l 1
95 1262 m 1
 335 1377 l 1
 434 1309 566 1181 792 967 c 2
 1079 695 l 2
 1291 495 1414 365 1655 258 c 1
 1405 140 l 1
 1251 251 1137 374 968 537 c 2
 681 814 l 2
 474 1013 332 1156 95 1262 c 1
1092 1290 m 1
 944 1631 l 1
 974 1651 l 1
 1310 1290 l 1
 974 929 l 1
 944 949 l 1
 1092 1290 l 1
0 715 m 1
 -50 764 l 1
 0 810 l 1
 1880 810 l 1
 1930 763 l 1
 1880 715 l 1
 0 715 l 1
EndSplineSet
EndChar
StartChar: uni01E9
Encoding: 489 489 45
Width: 1840
VWidth: 2573
Flags: W
HStem: 140 21G<1328 1447.37> 715 95<0 1840> 969 225G<879 933.657 1250 1324.02 1366.26 1407> 1377 2G<293.261 384.5 879 933.657 1250 1338.99 1366.58 1407>
LayerCount: 2
Fore
SplineSet
236 370 m 1
 236 399 l 1
 352 429 450 506 502 534 c 1
 567 500 668 438 772 408 c 1
 772 381 l 1
 679.461914062 347.2265625 556 270 502 242 c 1
 450 268 355.545898438 335.518554688 236 370 c 1
1250 1173 m 25
 1250 1399 l 25
 1646 1310 l 25
 1646 1280 l 25
 1250 1173 l 25
1322 1290 m 1
 1407 875 l 1
 1380 859 l 1
 1084 1290 l 1
 1380 1731 l 1
 1407 1715 l 1
 1322 1290 l 1
1072 1290 m 1
 879 1591 l 1
 904 1611 l 1
 1380 1290 l 1
 904 969 l 1
 879 989 l 1
 1072 1290 l 1
95 1262 m 1
 335 1377 l 1
 434 1309 566 1181 792 967 c 2
 1079 695 l 2
 1291 495 1414 365 1655 258 c 1
 1405 140 l 1
 1251 251 1137 374 968 537 c 2
 681 814 l 2
 474 1013 332 1156 95 1262 c 1
0 715 m 1
 -50 764 l 1
 0 810 l 1
 1840 810 l 1
 1890 763 l 1
 1840 715 l 1
 0 715 l 1
EndSplineSet
EndChar
StartChar: uni0252
Encoding: 594 594 55
Width: 1560
VWidth: 2573
Flags: W
HStem: -32 186<645 1029> 328 482<312 515 682 885> 715 95<0 312 515 682 885 1029 1235 1560> 715 61<1029 1235>
VStem: 312 203<350.123 760> 682 203<350.123 760> 1029 206<154 768>
LayerCount: 2
Fore
SplineSet
885 760 m 25x9e
 885 328 l 1
 602 328 l 1xce
 650 345 682 396 682 468 c 9
 682 776 l 1
 885 760 l 25x9e
515 760 m 25
 515 328 l 1
 232 328 l 1xce
 280 345 312 396 312 468 c 9
 312 776 l 1x9e
 515 760 l 25
0 715 m 1xae
 -50 759 l 1
 0 810 l 1
 1560 810 l 1
 1610 764 l 1
 1560 715 l 1
 0 715 l 1xae
1029 776 m 1x9e
 1235 768 l 1
 1235 -32 l 1
 645 -32 l 1
 580 -135 l 1
 580 154 l 1
 1029 154 l 1
 1029 776 l 1x9e
EndSplineSet
EndChar
StartChar: uni0259
Encoding: 601 601 57
Width: 1960
VWidth: 2573
Flags: W
HStem: 119 220<724.12 1174.18> 715 95<0 315 465 1960> 919 21G<320 652.143> 1250.9 218.099<713.171 1148.9>
VStem: 1420 155<568.533 974.592>
LayerCount: 2
Fore
SplineSet
315 744 m 1
 465 744 l 1
 485 434 721 339 955 339 c 3
 1200.45898438 339 1420 478.848632812 1420 759 c 3
 1420 1044 1239 1250.90136719 924 1250.90136719 c 3
 639 1250.90136719 570 1164 485 1059 c 1
 680 919 l 1
 320 939 l 1
 375 1229 620 1469 934 1469 c 3
 1282.11035156 1469 1575 1219.02840817 1575 779 c 3
 1575 339 1260 119 946 119 c 3
 619.961914062 119 335 374 315 744 c 1
0 715 m 1
 -50 764 l 1
 0 810 l 1
 1960 810 l 1
 2010 763 l 1
 1960 715 l 1
 0 715 l 1
EndSplineSet
EndChar
StartChar: uni0262
Encoding: 610 610 30
Width: 1760
VWidth: 2573
Flags: W
HStem: 140 21G<1328 1447.37> 715 95<0 1760> 859 21G<1241.77 1292.86> 1279 98G<293.261 384.5 1241.77 1285 1372.39 1390.14> 1701 20G<1241.77 1285>
LayerCount: 2
Fore
SplineSet
1094 1290 m 1
 1170 1100 l 1
 1395 1299 l 1
 1288 859 l 1
 1262 859 l 1
 826 1290 l 1
 1262 1721 l 1
 1285 1702 l 1
 1094 1290 l 1
95 1262 m 1
 335 1377 l 1
 434 1309 566 1181 792 967 c 2
 1079 695 l 2
 1291 495 1414 365 1655 258 c 1
 1405 140 l 1
 1251 251 1137 374 968 537 c 2
 681 814 l 2
 474 1013 332 1156 95 1262 c 1
0 715 m 1
 -50 764 l 1
 0 810 l 1
 1760 810 l 1
 1810 763 l 1
 1760 715 l 1
 0 715 l 1
EndSplineSet
EndChar
StartChar: uni026C
Encoding: 620 620 20
Width: 1950
VWidth: 2573
Flags: W
HStem: 715 95<0 230 494 1474 1747 1950> 715 25<230 494> 859 21G<833.16 875 953.392 970.591> 1701 20G<833.16 882.409> 1701 20G<833.16 882.409>
LayerCount: 2
Fore
SplineSet
684 1290 m 5x30
 875 878 l 5
 852 859 l 5
 446 1290 l 5
 852 1721 l 5
 878 1721 l 5
 975 1281 l 5
 760 1480 l 5
 684 1290 l 5x30
836 44 m 1
 964 176 1250 504 1391 667 c 2
 1474 762 l 1
 1747 730 l 1
 1673 682 1598 615 1526 529 c 0
 1347 316 1164 95 1096 -28 c 1
 836 44 l 1
1102 242 m 1
 760 242 l 1
 665 310 562 416 435 537 c 2
 230 731 l 1
 494 740 l 1x60
 544 690 l 2
 746 487 885 348 1102 242 c 1
0 715 m 1xa0
 -50 764 l 1
 0 810 l 1
 1950 810 l 1
 2000 763 l 1
 1950 715 l 1
 0 715 l 1xa0
EndSplineSet
EndChar
StartChar: uni026E
Encoding: 622 622 29
Width: 1950
VWidth: 2573
Flags: W
HStem: 715 95<0 230 494 1474 1747 1950> 715 25<230 494> 906 21G<106 140.837 1053.65 1066.91> 1701 20G<833.557 885.089> 1701 20G<833.557 885.089>
LayerCount: 2
Fore
SplineSet
842 1396 m 5x30
 111 906 l 5
 106 912 l 5
 852 1721 l 5
 878 1721 l 5
 1074 1168 l 5
 842 1396 l 5x30
836 44 m 1
 964 176 1250 504 1391 667 c 2
 1474 762 l 1
 1747 730 l 1
 1673 682 1598 615 1526 529 c 0
 1347 316 1164 95 1096 -28 c 1
 836 44 l 1
1102 242 m 1
 760 242 l 1
 665 310 562 416 435 537 c 2
 230 731 l 1
 494 740 l 1x60
 544 690 l 2
 746 487 885 348 1102 242 c 1
0 715 m 1xa0
 -50 764 l 1
 0 810 l 1
 1950 810 l 1
 2000 763 l 1
 1950 715 l 1
 0 715 l 1xa0
EndSplineSet
EndChar
StartChar: uni0274
Encoding: 628 628 32
Width: 1410
VWidth: 2573
Flags: W
HStem: 0 21G<697 1015> 715 95<0 1410> 859 21G<561.768 612.864> 1279 241G<561.768 605 692.387 710.136 814 1122> 1701 20G<561.768 605>
VStem: 814 201<80 1474.05>
LayerCount: 2
Fore
SplineSet
414 1290 m 5
 490 1100 l 5
 715 1299 l 5
 608 859 l 5
 582 859 l 5
 146 1290 l 5
 582 1721 l 5
 605 1702 l 5
 414 1290 l 5
0 715 m 1
 -50 764 l 1
 0 810 l 1
 1410 810 l 1
 1460 763 l 1
 1410 715 l 1
 0 715 l 1
814 80 m 9
 814 1520 l 25
 1122 1520 l 17
 1064 1487 1015 1450 1015 1353 c 9
 1015 0 l 25
 697 0 l 17
 814 80 l 9
EndSplineSet
EndChar
StartChar: uni0281
Encoding: 641 641 44
Width: 1850
VWidth: 2573
Flags: W
HStem: 715 95<0 1850> 859 21G<713.16 762.409> 1279 442G<713.16 755 833.392 850.591 1354.5 1453.22> 1701 20G<713.16 755>
LayerCount: 2
Fore
SplineSet
564 1290 m 1xe0
 640 1100 l 1
 855 1299 l 1
 758 859 l 1
 732 859 l 1
 326 1290 l 1
 732 1721 l 1
 755 1702 l 1
 564 1290 l 1xe0
1641 1470 m 1
 1515 1338 1239 973 1136 847 c 2
 884 517 l 2
 773 387 577 119 520 -13 c 1
 244 60 l 1
 366 174 616 504 747 660 c 2
 1000 985 l 2
 1137 1146 1328 1421 1381 1542 c 1
 1641 1470 l 1
0 715 m 1
 -50 764 l 1
 0 810 l 1
 1850 810 l 1
 1900 763 l 1
 1850 715 l 1
 0 715 l 1
EndSplineSet
EndChar
StartChar: theta
Encoding: 952 952 50
Width: 1850
VWidth: 2573
Flags: W
HStem: 715 95<0 1850> 880 49G<314 362.615 843.624 885 972.387 990.136> 1701 20G<314 362.615 843.624 892.864 1354.5 1453.22>
LayerCount: 2
Fore
SplineSet
684 1290 m 1
 885 878 l 1
 862 859 l 1
 466 1290 l 1
 862 1721 l 1
 888 1721 l 1
 995 1281 l 1
 770 1480 l 1
 684 1290 l 1
462 1290 m 1
 314 1631 l 1
 344 1651 l 1
 680 1290 l 1
 344 929 l 1
 314 949 l 1
 462 1290 l 1
1641 1470 m 1
 1515 1338 1239 973 1136 847 c 2
 884 517 l 2
 773 387 577 119 520 -13 c 1
 244 60 l 1
 366 174 616 504 747 660 c 2
 1000 985 l 2
 1137 1146 1328 1421 1381 1542 c 1
 1641 1470 l 1
0 715 m 1
 -50 764 l 1
 0 810 l 1
 1850 810 l 1
 1900 763 l 1
 1850 715 l 1
 0 715 l 1
EndSplineSet
EndChar
StartChar: phi
Encoding: 966 966 52
Width: 1880
VWidth: 2573
Flags: W
HStem: 140 21G<1328 1447.37> 210 10<146 169.766> 221 10<839.829 852> 715 95<0 1880> 929 21G<944 994.831> 1377 254G<293.261 384.5 944 994.831>
VStem: 492 10<-148 -125.082 333 614>
LayerCount: 2
Fore
SplineSet
1082 1290 m 1
 944 1631 l 1
 974 1651 l 1
 1350 1290 l 1
 974 929 l 1
 944 949 l 1
 1082 1290 l 1
146 210 m 1
 146 220 l 1
 407 260 452 328 488 614 c 1
 498 614 l 1
 542 333 589 265 852 231 c 1
 852 221 l 1
 588 164 546 111 502 -148 c 1
 492 -148 l 1
 456 102 406 173 146 210 c 1
95 1262 m 1
 335 1377 l 1
 434 1309 566 1181 792 967 c 2
 1079 695 l 2
 1291 495 1414 365 1655 258 c 1
 1405 140 l 1
 1251 251 1137 374 968 537 c 2
 681 814 l 2
 474 1013 332 1156 95 1262 c 1
0 715 m 1
 -50 764 l 1
 0 810 l 1
 1880 810 l 1
 1930 763 l 1
 1880 715 l 1
 0 715 l 1
EndSplineSet
EndChar
StartChar: chi
Encoding: 967 967 51
Width: 1850
VWidth: 2573
Flags: W
HStem: 715 95<0 1850> 859 21G<254 302.615 783.624 832.864> 1279 372G<254 302.615 783.624 825 912.387 930.136 1354.5 1453.22> 1701 20G<783.624 825>
LayerCount: 2
Fore
SplineSet
624 1290 m 1
 710 1100 l 1
 935 1299 l 1
 828 859 l 1
 802 859 l 1
 406 1290 l 1
 802 1721 l 1
 825 1702 l 1
 624 1290 l 1
402 1290 m 1
 254 1631 l 1
 284 1651 l 1
 620 1290 l 1
 284 929 l 1
 254 949 l 1
 402 1290 l 1
1641 1470 m 1
 1515 1338 1239 973 1136 847 c 2
 884 517 l 2
 773 387 577 119 520 -13 c 1
 244 60 l 1
 366 174 616 504 747 660 c 2
 1000 985 l 2
 1137 1146 1328 1421 1381 1542 c 1
 1641 1470 l 1
0 715 m 1
 -50 764 l 1
 0 810 l 1
 1850 810 l 1
 1900 763 l 1
 1850 715 l 1
 0 715 l 1
EndSplineSet
EndChar
StartChar: wdieresis
Encoding: 7813 7813 54
Width: 2350
VWidth: 2573
Flags: W
HStem: 715 95<0 1893 2193 2350> 1173 21G<270 353.364 479.304 527> 1280 30<656.244 716> 1379 20G<270 370.225 479.773 527 965.322 1083.5>
LayerCount: 2
Fore
SplineSet
270 1173 m 25
 270 1399 l 25
 716 1310 l 25
 716 1280 l 25
 270 1173 l 25
342 1290 m 1
 527 875 l 1
 500 859 l 1
 54 1290 l 1
 500 1731 l 1
 527 1715 l 1
 342 1290 l 1
760 312 m 1
 937 352 1356 547 1875 785 c 2
 1907 800 l 1
 2291 793 l 1
 1971 647 l 2
 1530 445 1117 241 980 200 c 1
 760 312 l 1
1893 731 m 1
 1657 848 l 2
 1325 1012 1007 1194 766 1304 c 1
 1006 1422 l 1
 1161 1313 1518 1115 1773 975 c 2
 2193 744 l 1
 1893 731 l 1
0 715 m 1
 -50 764 l 1
 0 810 l 1
 2350 810 l 1
 2400 763 l 1
 2350 715 l 1
 0 715 l 1
EndSplineSet
EndChar
StartChar: quoteright
Encoding: 8217 8217 56
Width: 1600
VWidth: 2573
Flags: W
HStem: 140 21G<1248 1367.37> 715 95<0 1600> 1357 20G<213.261 304.5>
LayerCount: 2
Fore
SplineSet
176 370 m 5
 176 399 l 5
 292 429 390 506 442 554 c 5
 507 500 608 438 712 408 c 5
 712 381 l 5
 619.461914062 347.2265625 496 270 442 222 c 5
 390 268 295.545898438 335.518554688 176 370 c 5
15 1262 m 1
 255 1377 l 1
 354 1309 486 1181 712 967 c 2
 999 695 l 2
 1211 495 1334 365 1575 258 c 1
 1325 140 l 1
 1171 251 1057 374 888 537 c 2
 601 814 l 2
 394 1013 252 1156 15 1262 c 1
0 715 m 1
 -50 764 l 1
 0 810 l 1
 1600 810 l 1
 1650 763 l 1
 1600 715 l 1
 0 715 l 1
EndSplineSet
EndChar
StartChar: space.phy
Encoding: 65536 -1 17
Width: 1200
VWidth: 2573
Flags: W
HStem: 715 95<0 1200> 1578 20G<514 538.41>
VStem: 514 201<230 1276>
LayerCount: 2
Fore
SplineSet
715 1276 m 1
 715 -92 l 1
 322 230 l 1
 514 230 l 1
 514 1598 l 1
 907 1276 l 1
 715 1276 l 1
0 715 m 1
 -50 764 l 1
 0 810 l 1
 1200 810 l 1
 1250 763 l 1
 1200 715 l 1
 0 715 l 1
EndSplineSet
EndChar
